<?xml version="1.0" encoding="UTF-8"?>
<svg xmlns="http://www.w3.org/2000/svg" viewBox="0 0 14400 14400">
  <defs>
    <style>
      .cls-1 {
        fill: none;
      }

      .cls-1, .cls-2 {
        stroke: #000;
        stroke-miterlimit: 10;
      }

      .cls-3 {
        mix-blend-mode: exclusion;
      }

      .cls-4 {
        fill: #fff;
      }

      .cls-5 {
        fill: #417abe;
      }

      .cls-6 {
        isolation: isolate;
      }

      .cls-2 {
        fill: #39922f;
      }
    </style>
  </defs>
  <g class="cls-6">
    <g id="Capa_2" data-name="Capa 2">
      <path class="cls-2" d="M7042.96,7087.57c-4.28-.09-6.92-25.18-7.63-31.89-2.87-27.16-5.77-58.01,7.43-93.52,1.41-3.79,5.61-14.63,13.3-27.59,3.47-5.84,14.73-24.02,33.46-40.89,23.29-20.98,46.8-29.73,70.63-38.35,9.37-3.39,34.68-9.69,85.3-22.3,23.65-5.89,30.6-7.5,42.26-12.13,21.93-8.72,38.21-15.19,53.8-30.33,10.56-10.25,15.42-19.25,21.15-17.79,5.84,1.49,7.63,12.63,9.18,22.88,6.67,44.25,10,66.37,9.98,69.46-.22,30.53-.52,71.59-24.33,114.56-33.82,61.04-92.28,84.76-106.37,90.48-37.8,15.34-84.33,21.24-88.24,21.72-19.67,2.4-42.01,3.42-60.07,15.07-9.19,5.93-19.21,10.56-28.17,16.83-6.54,4.58-12.54,9.3-15.09,7.48-1.95-1.39-.91-5.92.02-9.82,4.55-19.01,6.83-28.52,8.41-32.09,21.96-49.44,45-75.13,45-75.13,35.48-39.57,78.53-59.89,102.52-71.22,23.55-11.12,37.99-14.97,57.91-31.7,23.59-19.8,39.33-44.59,37.37-46.37-1.55-1.41-13.68,12.05-31.11,25.43-32.04,24.6-50.95,25.11-89.02,42.26-49.58,22.34-96.21,56.94-115.83,87.85-18.85,29.69-24.26,46.96-24.26,46.96-3.34,10.67-4.98,20.21-7.63,20.15Z"/>
    </g>
    <g id="Capa_3" data-name="Capa 3">
      <g class="cls-3">
        <path class="cls-5" d="M7408.13,6938.12c14.28-4.53,71.67,69.68,73.57,155.74,2.19,99.37-63.78,163.6-71.22,170.61-3.05,2.87-67.45,61.86-155.74,61.83-11.26,0-29.51-4.8-64.17-7.83-29.84-2.6-49.73-2.88-69.65-1.57-22.96,1.52-36.63,4.54-40.7,5.48-22.84,5.26-31.09,11.01-32.09,9.39-3.22-5.23,74.64-79.81,154.17-86.09,25.62-2.02,53.34-3.63,53.34-3.63,30.14-1.75,42.4-1.94,62.48-5.76,21.48-4.09,34.59-9.03,37.57-10.17,16.48-6.32,28.11-13.42,36.78-18.78,15.2-9.39,22.81-14.09,30.52-22.7,11.07-12.36,15.47-24.79,19.57-36.78,9.3-27.18,13.48-61.71,7.83-63.39-7.29-2.16-10.49,56.45-55.57,91.57-47.66,37.13-126.05,35.48-138.52,35.22-7.81-.16-26.48-.98-51.65,2.35-15.54,2.06-31.4,4.16-50.09,11.74-15.66,6.35-27.87,15.28-51.65,32.87-17.32,12.81-30,22.19-44.61,36-37.65,35.59-43.51,58.45-50.87,56.35-14.04-4-22.52-95.66,27.39-158.09,34.1-42.65,84.34-57.76,113.48-66.52,54.19-16.3,66.27-2.53,117.39-22.7,17.73-7,54.94-22.15,88.43-58.7,14.67-16.01,37.75-41.19,46.96-79.83,4.06-17.06,2.68-25.22,7.04-26.61Z"/>
        <path class="cls-1" d="M7408.13,6938.12c14.28-4.53,71.67,69.68,73.57,155.74,2.19,99.37-63.78,163.6-71.22,170.61-3.05,2.87-67.45,61.86-155.74,61.83-11.26,0-29.51-4.8-64.17-7.83-29.84-2.6-49.73-2.88-69.65-1.57-22.96,1.52-36.63,4.54-40.7,5.48-22.84,5.26-31.09,11.01-32.09,9.39-3.22-5.23,74.64-79.81,154.17-86.09,25.62-2.02,53.34-3.63,53.34-3.63,30.14-1.75,42.4-1.94,62.48-5.76,21.48-4.09,34.59-9.03,37.57-10.17,16.48-6.32,28.11-13.42,36.78-18.78,15.2-9.39,22.81-14.09,30.52-22.7,11.07-12.36,15.47-24.79,19.57-36.78,9.3-27.18,13.48-61.71,7.83-63.39-7.29-2.16-10.49,56.45-55.57,91.57-47.66,37.13-126.05,35.48-138.52,35.22-7.81-.16-26.48-.98-51.65,2.35-15.54,2.06-31.4,4.16-50.09,11.74-15.66,6.35-27.87,15.28-51.65,32.87-17.32,12.81-30,22.19-44.61,36-37.65,35.59-43.51,58.45-50.87,56.35-14.04-4-22.52-95.66,27.39-158.09,34.1-42.65,84.34-57.76,113.48-66.52,54.19-16.3,66.27-2.53,117.39-22.7,17.73-7,54.94-22.15,88.43-58.7,14.67-16.01,37.75-41.19,46.96-79.83,4.06-17.06,2.68-25.22,7.04-26.61Z"/>
      </g>
      <g>
        <path class="cls-4" d="M7409.43,7084.76c-14.33,30.89-42.64,45.63-61.99,55.69-11.68,6.08-22.24,10.12-84.96,24.31-67.74,15.33-78.69,15.88-108.47,26.07-24.5,8.37-41.99,14.35-62.55,27.09-52.65,32.59-72.53,76.65-75.83,74.5-3.2-2.08,12.36-45.18,49.1-79.38,27.29-25.4,58.77-38.92,70.26-43.85,17.77-7.63,33.32-11.9,35.73-12.54,12.92-3.49,20.43-4.43,42.15-8.4,15.65-2.86,32.62-6.19,42.79-8.38,29.24-6.3,51.61-11.12,75.94-22.78,20.17-9.66,42.31-20.27,58.01-42.85,22.86-32.86,16.49-68.64,20.38-68.56,4.19.09,16.87,41.46-.57,79.08Z"/>
        <path class="cls-1" d="M7409.43,7084.76c-14.33,30.89-42.64,45.63-61.99,55.69-11.68,6.08-22.24,10.12-84.96,24.31-67.74,15.33-78.69,15.88-108.47,26.07-24.5,8.37-41.99,14.35-62.55,27.09-52.65,32.59-72.53,76.65-75.83,74.5-3.2-2.08,12.36-45.18,49.1-79.38,27.29-25.4,58.77-38.92,70.26-43.85,17.77-7.63,33.32-11.9,35.73-12.54,12.92-3.49,20.43-4.43,42.15-8.4,15.65-2.86,32.62-6.19,42.79-8.38,29.24-6.3,51.61-11.12,75.94-22.78,20.17-9.66,42.31-20.27,58.01-42.85,22.86-32.86,16.49-68.64,20.38-68.56,4.19.09,16.87,41.46-.57,79.08Z"/>
      </g>
    </g>
  </g>
</svg>